<!-- <svg xmlns="http://www.w3.org/2000/svg" xmlns:xlink="http://www.w3.org/1999/xlink" width="1024" zoomAndPan="magnify" viewBox="0 0 768 767.999994" height="1024" preserveAspectRatio="xMidYMid meet" version="1.0"><defs><g/></defs><g fill="#ffffff" fill-opacity="1"><g transform="translate(164.151652, 400.546085)"><g><path d="M 70.46875 -63.96875 C 70.46875 -56.445312 67.890625 -50.195312 62.734375 -45.21875 C 57.585938 -40.25 49.738281 -37.765625 39.1875 -37.765625 L 21.796875 -37.765625 L 21.796875 0 L 9.984375 0 L 9.984375 -90.453125 L 39.1875 -90.453125 C 49.394531 -90.453125 57.160156 -87.984375 62.484375 -83.046875 C 67.804688 -78.117188 70.46875 -71.757812 70.46875 -63.96875 Z M 39.1875 -47.5 C 45.757812 -47.5 50.601562 -48.925781 53.71875 -51.78125 C 56.832031 -54.632812 58.390625 -58.695312 58.390625 -63.96875 C 58.390625 -75.132812 51.988281 -80.71875 39.1875 -80.71875 L 21.796875 -80.71875 L 21.796875 -47.5 Z M 39.1875 -47.5 "/></g></g></g><g fill="#ffffff" fill-opacity="1"><g transform="translate(244.993857, 400.546085)"><g><path d="M 63.453125 -20.109375 L 24 -20.109375 L 16.734375 0 L 4.28125 0 L 36.984375 -89.921875 L 50.609375 -89.921875 L 83.1875 0 L 70.71875 0 Z M 60.078125 -29.71875 L 43.734375 -75.390625 L 27.375 -29.71875 Z M 60.078125 -29.71875 "/></g></g></g><g fill="#ffffff" fill-opacity="1"><g transform="translate(338.163431, 400.546085)"><g><path d="M 57.609375 0 L 36.078125 -36.984375 L 21.796875 -36.984375 L 21.796875 0 L 9.984375 0 L 9.984375 -90.453125 L 39.1875 -90.453125 C 46.019531 -90.453125 51.789062 -89.28125 56.5 -86.9375 C 61.21875 -84.601562 64.742188 -81.445312 67.078125 -77.46875 C 69.421875 -73.488281 70.59375 -68.945312 70.59375 -63.84375 C 70.59375 -57.613281 68.796875 -52.117188 65.203125 -47.359375 C 61.617188 -42.609375 56.234375 -39.453125 49.046875 -37.890625 L 71.765625 0 Z M 21.796875 -46.453125 L 39.1875 -46.453125 C 45.59375 -46.453125 50.394531 -48.03125 53.59375 -51.1875 C 56.789062 -54.34375 58.390625 -58.5625 58.390625 -63.84375 C 58.390625 -69.207031 56.8125 -73.359375 53.65625 -76.296875 C 50.5 -79.242188 45.675781 -80.71875 39.1875 -80.71875 L 21.796875 -80.71875 Z M 21.796875 -46.453125 "/></g></g></g><g fill="#ffffff" fill-opacity="1"><g transform="translate(422.768728, 400.546085)"><g><path d="M 65.65625 -90.453125 L 65.65625 -80.84375 L 41 -80.84375 L 41 0 L 29.203125 0 L 29.203125 -80.84375 L 4.40625 -80.84375 L 4.40625 -90.453125 Z M 65.65625 -90.453125 "/></g></g></g><g fill="#ffffff" fill-opacity="1"><g transform="translate(498.679994, 400.546085)"><g><path d="M 79.671875 -90.453125 L 79.671875 0 L 67.875 0 L 67.875 -41 L 21.796875 -41 L 21.796875 0 L 9.984375 0 L 9.984375 -90.453125 L 21.796875 -90.453125 L 21.796875 -50.734375 L 67.875 -50.734375 L 67.875 -90.453125 Z M 79.671875 -90.453125 "/></g></g></g><g fill="#ffffff" fill-opacity="1"><g transform="translate(128.081341, 530.296079)"><g/></g></g><g fill="#ffffff" fill-opacity="1"><g transform="translate(168.428995, 530.296079)"><g><path d="M 101.734375 -89.796875 L 101.734375 0 L 89.921875 0 L 89.921875 -66.953125 L 60.078125 0 L 51.78125 0 L 21.796875 -67.09375 L 21.796875 0 L 9.984375 0 L 9.984375 -89.796875 L 22.703125 -89.796875 L 55.921875 -15.578125 L 89.15625 -89.796875 Z M 101.734375 -89.796875 "/></g></g></g><g fill="#ffffff" fill-opacity="1"><g transform="translate(285.864002, 530.296079)"><g><path d="M 21.796875 -90.453125 L 21.796875 0 L 9.984375 0 L 9.984375 -90.453125 Z M 21.796875 -90.453125 "/></g></g></g><g fill="#ffffff" fill-opacity="1"><g transform="translate(323.495573, 530.296079)"><g><path d="M 65.65625 -90.453125 L 65.65625 -80.84375 L 41 -80.84375 L 41 0 L 29.203125 0 L 29.203125 -80.84375 L 4.40625 -80.84375 L 4.40625 -90.453125 Z M 65.65625 -90.453125 "/></g></g></g><g fill="#ffffff" fill-opacity="1"><g transform="translate(399.406828, 530.296079)"><g><path d="M 65.65625 -90.453125 L 65.65625 -80.84375 L 41 -80.84375 L 41 0 L 29.203125 0 L 29.203125 -80.84375 L 4.40625 -80.84375 L 4.40625 -90.453125 Z M 65.65625 -90.453125 "/></g></g></g><g fill="#ffffff" fill-opacity="1"><g transform="translate(475.318095, 530.296079)"><g><path d="M 63.453125 -20.109375 L 24 -20.109375 L 16.734375 0 L 4.28125 0 L 36.984375 -89.921875 L 50.609375 -89.921875 L 83.1875 0 L 70.71875 0 Z M 60.078125 -29.71875 L 43.734375 -75.390625 L 27.375 -29.71875 Z M 60.078125 -29.71875 "/></g></g></g><g fill="#ffffff" fill-opacity="1"><g transform="translate(568.487691, 530.296079)"><g><path d="M 21.796875 -9.609375 L 53.46875 -9.609375 L 53.46875 0 L 9.984375 0 L 9.984375 -90.453125 L 21.796875 -90.453125 Z M 21.796875 -9.609375 "/></g></g></g><g fill="#1aede6" fill-opacity="1"><g transform="translate(26.214175, 532.429038)"><g><path d="M 31.234375 -121.65625 C 51.460938 -125.425781 61.578125 -135.835938 61.578125 -152.890625 C 61.578125 -160.421875 60.582031 -173.3125 58.59375 -191.5625 C 56.613281 -210.988281 55.625 -225.066406 55.625 -233.796875 C 55.625 -248.078125 59.640625 -258.984375 67.671875 -266.515625 C 75.703125 -274.054688 86.457031 -277.828125 99.9375 -277.828125 L 117.203125 -277.828125 L 117.203125 -254.328125 L 105 -254.328125 C 97.269531 -254.328125 91.519531 -252.585938 87.75 -249.109375 C 83.976562 -245.640625 82.09375 -239.941406 82.09375 -232.015625 C 82.09375 -226.265625 82.488281 -219.175781 83.28125 -210.75 C 84.082031 -202.320312 84.582031 -196.617188 84.78125 -193.640625 C 86.757812 -174.609375 87.75 -160.726562 87.75 -152 C 87.75 -141.488281 85.117188 -132.710938 79.859375 -125.671875 C 74.609375 -118.628906 66.53125 -113.921875 55.625 -111.546875 L 55.625 -110.953125 C 66.53125 -108.566406 74.609375 -103.804688 79.859375 -96.671875 C 85.117188 -89.535156 87.75 -80.710938 87.75 -70.203125 C 87.75 -61.472656 86.757812 -47.59375 84.78125 -28.5625 C 84.582031 -25.582031 84.082031 -19.878906 83.28125 -11.453125 C 82.488281 -3.023438 82.09375 4.0625 82.09375 9.8125 C 82.09375 17.75 83.976562 23.453125 87.75 26.921875 C 91.519531 30.390625 97.269531 32.125 105 32.125 L 117.203125 32.125 L 117.203125 55.625 L 99.9375 55.625 C 86.457031 55.625 75.703125 51.851562 67.671875 44.3125 C 59.640625 36.78125 55.625 25.875 55.625 11.59375 C 55.625 2.875 56.613281 -11.203125 58.59375 -30.640625 C 60.582031 -48.878906 61.578125 -61.769531 61.578125 -69.3125 C 61.578125 -86.363281 51.460938 -96.773438 31.234375 -100.546875 Z M 31.234375 -121.65625 "/></g></g></g><g fill="#1aede6" fill-opacity="1"><g transform="translate(612.330213, 536.009965)"><g><path d="M 106.921875 -101.234375 C 86.554688 -97.441406 76.375 -86.957031 76.375 -69.78125 C 76.375 -62.195312 77.375 -49.21875 79.375 -30.84375 C 81.363281 -11.28125 82.359375 2.894531 82.359375 11.6875 C 82.359375 26.0625 78.316406 37.039062 70.234375 44.625 C 62.148438 52.207031 51.316406 56 37.734375 56 L 20.359375 56 L 20.359375 32.34375 L 32.640625 32.34375 C 40.429688 32.34375 46.222656 30.59375 50.015625 27.09375 C 53.804688 23.601562 55.703125 17.867188 55.703125 9.890625 C 55.703125 4.097656 55.300781 -3.039062 54.5 -11.53125 C 53.707031 -20.019531 53.210938 -25.757812 53.015625 -28.75 C 51.015625 -47.914062 50.015625 -61.894531 50.015625 -70.6875 C 50.015625 -81.269531 52.660156 -90.15625 57.953125 -97.34375 C 63.242188 -104.53125 71.378906 -109.320312 82.359375 -111.71875 L 82.359375 -112.3125 C 71.378906 -114.707031 63.242188 -119.445312 57.953125 -126.53125 C 52.660156 -133.625 50.015625 -142.460938 50.015625 -153.046875 C 50.015625 -161.828125 51.015625 -175.800781 53.015625 -194.96875 C 53.210938 -197.96875 53.707031 -203.707031 54.5 -212.1875 C 55.300781 -220.675781 55.703125 -227.816406 55.703125 -233.609375 C 55.703125 -241.597656 53.804688 -247.335938 50.015625 -250.828125 C 46.222656 -254.328125 40.429688 -256.078125 32.640625 -256.078125 L 20.359375 -256.078125 L 20.359375 -279.734375 L 37.734375 -279.734375 C 51.316406 -279.734375 62.148438 -275.9375 70.234375 -268.34375 C 78.316406 -260.757812 82.359375 -249.78125 82.359375 -235.40625 C 82.359375 -226.625 81.363281 -212.445312 79.375 -192.875 C 77.375 -174.507812 76.375 -161.53125 76.375 -153.9375 C 76.375 -136.769531 86.554688 -126.289062 106.921875 -122.5 Z M 106.921875 -101.234375 "/></g></g></g></svg> -->

<svg width="811.3" height="99" viewBox="0 0 811.3 99" xmlns="http://www.w3.org/2000/svg"><g id="svgGroup" stroke-linecap="round" fill-rule="evenodd" font-size="9pt" stroke="#000" stroke-width="0.25mm" fill="#5ce1e6" style="stroke:#000;stroke-width:0.25mm;fill:#5ce1e6"><path d="M 534.2 75.8 L 525.2 75.8 L 525.2 23.8 L 533.9 23.8 L 533.9 32.5 Q 536.7 28.3 541 25.45 A 17.205 17.205 0 0 1 550.202 22.609 A 20.858 20.858 0 0 1 550.8 22.6 A 20.994 20.994 0 0 1 555.217 23.04 Q 558.203 23.682 560.485 25.263 A 13.128 13.128 0 0 1 560.95 25.6 A 15.751 15.751 0 0 1 566.398 33.289 A 19.154 19.154 0 0 1 566.5 33.6 Q 569.6 29 573.85 25.8 A 15.669 15.669 0 0 1 580.641 22.916 A 21.446 21.446 0 0 1 584.4 22.6 A 21.437 21.437 0 0 1 589.288 23.122 Q 592.874 23.962 595.363 26.151 A 12.994 12.994 0 0 1 597.05 27.95 A 18.992 18.992 0 0 1 600.461 35.222 Q 601.2 38.272 601.2 41.9 L 601.2 75.8 L 592.2 75.8 L 592.2 42.6 A 19.042 19.042 0 0 0 591.863 38.911 Q 591.427 36.705 590.428 34.961 A 10.982 10.982 0 0 0 589.7 33.85 A 7.974 7.974 0 0 0 583.887 30.554 A 10.678 10.678 0 0 0 582.8 30.5 A 11.926 11.926 0 0 0 576.041 32.627 A 15.996 15.996 0 0 0 574.45 33.85 Q 570.6 37.2 567.7 41.7 L 567.7 75.8 L 558.7 75.8 L 558.7 42.6 A 19.042 19.042 0 0 0 558.363 38.911 Q 557.927 36.705 556.928 34.961 A 10.982 10.982 0 0 0 556.2 33.85 A 7.974 7.974 0 0 0 550.387 30.554 A 10.678 10.678 0 0 0 549.3 30.5 A 12.02 12.02 0 0 0 542.981 32.328 A 16.244 16.244 0 0 0 541 33.75 Q 537.1 37 534.2 41.4 L 534.2 75.8 Z M 77.3 75.8 L 68.3 75.8 L 68.3 5.8 L 80.9 5.8 L 111.8 64 L 111.8 5.8 L 120.8 5.8 L 120.8 75.8 L 108.4 75.8 L 77.3 18 L 77.3 75.8 Z M 454.5 70.2 L 447.9 77 L 413.9 43.6 L 413.9 75.8 L 404.4 75.8 L 404.4 5.8 L 413.9 5.8 L 413.9 37.7 L 443.7 5.5 L 450.1 11.4 L 422.8 39.8 L 454.5 70.2 Z M 625.1 71.5 L 625.1 75.8 L 616.7 75.8 L 616.7 1.8 L 625.7 1.8 L 625.7 29.2 Q 627.7 26.9 631.55 24.75 A 16.584 16.584 0 0 1 636.781 22.928 A 22.424 22.424 0 0 1 640.7 22.6 Q 646.7 22.6 651.95 25.75 A 22.329 22.329 0 0 1 659.128 32.717 A 27.464 27.464 0 0 1 660.4 34.85 Q 663.6 40.8 663.6 49.3 A 33.315 33.315 0 0 1 662.913 56.188 A 27.75 27.75 0 0 1 661.6 60.6 A 29.367 29.367 0 0 1 658.439 66.604 A 25.482 25.482 0 0 1 656.25 69.35 A 24.894 24.894 0 0 1 650.119 74.264 A 23.302 23.302 0 0 1 648.7 75 A 20.006 20.006 0 0 1 641.334 76.96 A 19.209 19.209 0 0 1 640.1 77 Q 635.6 77 631.65 75.35 A 30.274 30.274 0 0 1 628.347 73.742 Q 626.522 72.703 625.1 71.5 Z M 782.7 87.6 L 782.7 81.9 A 21.303 21.303 0 0 0 785.332 81.105 Q 787.344 80.344 788.75 79.25 Q 790.877 77.596 791.887 74.378 A 15.282 15.282 0 0 0 792 74 A 21.186 21.186 0 0 0 792.549 71.423 Q 792.97 68.693 792.998 64.939 A 72.312 72.312 0 0 0 793 64.4 A 82.959 82.959 0 0 1 793.097 60.247 Q 793.298 56.245 793.918 53.536 A 20.307 20.307 0 0 1 794.1 52.8 A 15.314 15.314 0 0 1 795.046 50.183 Q 796.079 48.014 797.7 46.75 A 13.349 13.349 0 0 1 800.213 45.226 Q 802.038 44.363 804.4 43.8 Q 801.061 43.005 798.797 41.61 A 12.11 12.11 0 0 1 797.7 40.85 Q 795.552 39.174 794.437 35.874 A 17.638 17.638 0 0 1 794.1 34.75 Q 793.106 31.001 793.01 24.6 A 93.354 93.354 0 0 1 793 23.2 Q 793 17.1 792 13.6 A 12.893 12.893 0 0 0 791.074 11.221 Q 790.336 9.791 789.281 8.803 A 7.633 7.633 0 0 0 788.75 8.35 Q 786.5 6.6 782.7 5.7 L 782.7 0 Q 789.2 0.6 793.4 3 A 14.115 14.115 0 0 1 798.938 8.83 A 18.143 18.143 0 0 1 799.65 10.35 A 23.078 23.078 0 0 1 800.879 14.437 Q 801.7 18.348 801.7 23.6 Q 801.7 29.7 802.5 33.25 Q 803.092 35.879 804.398 37.466 A 6.484 6.484 0 0 0 805.4 38.45 A 8.776 8.776 0 0 0 807.519 39.656 Q 809.133 40.315 811.3 40.6 L 811.3 47 A 17.55 17.55 0 0 0 808.901 47.476 Q 807.709 47.807 806.75 48.295 A 8.205 8.205 0 0 0 805.4 49.15 A 7.069 7.069 0 0 0 803.58 51.343 Q 803.063 52.284 802.716 53.467 A 14.206 14.206 0 0 0 802.5 54.3 Q 801.777 57.462 801.707 62.826 A 90.153 90.153 0 0 0 801.7 64 A 53.658 53.658 0 0 1 801.469 69.148 Q 801.011 73.88 799.65 77.2 A 16.334 16.334 0 0 1 797.208 81.375 A 13.585 13.585 0 0 1 793.4 84.6 Q 789.846 86.631 784.645 87.373 A 39.449 39.449 0 0 1 782.7 87.6 Z M 28.6 81.9 L 28.6 87.6 A 34.552 34.552 0 0 1 23.841 86.836 Q 21.34 86.242 19.277 85.281 A 19.046 19.046 0 0 1 17.95 84.6 A 14.04 14.04 0 0 1 12.344 78.699 A 18.102 18.102 0 0 1 11.65 77.2 A 23.74 23.74 0 0 1 10.401 73 Q 9.95 70.82 9.753 68.245 A 55.737 55.737 0 0 1 9.6 64 A 77.857 77.857 0 0 0 9.523 60.41 Q 9.37 57.103 8.912 54.823 A 20.09 20.09 0 0 0 8.8 54.3 A 12.402 12.402 0 0 0 8.098 52.115 Q 7.279 50.234 5.9 49.15 A 8.776 8.776 0 0 0 3.781 47.944 Q 2.167 47.285 0 47 L 0 40.6 A 17.55 17.55 0 0 0 2.399 40.124 Q 3.591 39.793 4.55 39.305 A 8.205 8.205 0 0 0 5.9 38.45 Q 7.672 37.058 8.518 34.313 A 14.208 14.208 0 0 0 8.8 33.25 Q 9.6 29.7 9.6 23.6 A 54.842 54.842 0 0 1 9.821 18.514 Q 10.273 13.676 11.65 10.35 Q 13.7 5.4 17.95 3 Q 21.636 0.919 26.938 0.191 A 39.011 39.011 0 0 1 28.6 0 L 28.6 5.7 Q 24.9 6.6 22.6 8.35 A 8.36 8.36 0 0 0 20.375 10.958 Q 19.783 12.014 19.381 13.326 A 14.985 14.985 0 0 0 19.3 13.6 A 21.186 21.186 0 0 0 18.751 16.177 Q 18.33 18.907 18.302 22.661 A 72.312 72.312 0 0 0 18.3 23.2 A 80.646 80.646 0 0 1 18.195 27.458 Q 17.985 31.414 17.355 34.127 A 20.901 20.901 0 0 1 17.2 34.75 A 15.6 15.6 0 0 1 16.278 37.343 Q 15.63 38.735 14.746 39.757 A 8.11 8.11 0 0 1 13.6 40.85 A 13.349 13.349 0 0 1 11.087 42.374 Q 9.263 43.238 6.9 43.8 Q 10.239 44.595 12.503 45.99 A 12.11 12.11 0 0 1 13.6 46.75 A 8.884 8.884 0 0 1 15.799 49.321 Q 16.665 50.806 17.2 52.8 Q 18.194 56.504 18.29 62.982 A 95.693 95.693 0 0 1 18.3 64.4 Q 18.3 70.5 19.3 74 A 12.575 12.575 0 0 0 20.233 76.379 Q 21.163 78.156 22.6 79.25 Q 24.9 81 28.6 81.9 Z M 220.8 75.8 L 211.4 75.8 L 190.5 26.2 L 198.7 22.8 L 216.4 65.6 L 234.1 22.8 L 241.8 26.2 L 220.8 75.8 Z M 335.7 57.9 L 335.7 33.5 L 326.7 33.5 L 326.7 25.7 L 335.9 25.7 L 337.8 9.3 L 344.7 9.3 L 344.7 25.7 L 359.1 25.7 L 359.1 33.5 L 344.7 33.5 L 344.7 58.6 A 21.559 21.559 0 0 0 344.868 61.396 Q 345.341 65.002 347.15 66.7 Q 349.6 69 353 69 Q 355.5 69 357.75 68.2 Q 360 67.4 361.9 66.3 L 364.4 73.5 A 18.546 18.546 0 0 1 362.782 74.356 Q 361.98 74.735 361.034 75.108 A 43.365 43.365 0 0 1 359 75.85 Q 355.6 77 351.9 77 Q 344.4 77 340.05 72.05 A 16.116 16.116 0 0 1 336.822 66.148 Q 336.059 63.717 335.815 60.78 A 34.777 34.777 0 0 1 335.7 57.9 Z M 173.4 28 L 173.4 23.8 L 181.6 23.8 L 181.6 63.2 A 12.15 12.15 0 0 0 181.702 64.836 Q 182.034 67.27 183.45 68.15 Q 185.3 69.3 187.5 69.3 L 185.6 76.3 A 17.722 17.722 0 0 1 181.335 75.828 Q 175.698 74.428 174.103 68.88 A 13.59 13.59 0 0 1 174 68.5 A 21.307 21.307 0 0 1 170.89 71.926 A 28.498 28.498 0 0 1 167.75 74.35 Q 163.8 77 157.7 77 Q 151.2 77 145.9 73.7 A 22.947 22.947 0 0 1 138.487 66.173 A 27.923 27.923 0 0 1 137.45 64.35 A 27.228 27.228 0 0 1 134.82 56.408 A 36.644 36.644 0 0 1 134.3 50.1 A 33.142 33.142 0 0 1 135.297 41.831 A 27.968 27.968 0 0 1 137.45 36.1 Q 140.6 29.9 146.15 26.25 A 22.297 22.297 0 0 1 157.345 22.644 A 27.388 27.388 0 0 1 158.9 22.6 A 22.584 22.584 0 0 1 163.694 23.09 A 18.703 18.703 0 0 1 167.05 24.15 A 26.002 26.002 0 0 1 171.337 26.444 A 22.103 22.103 0 0 1 173.4 28 Z M 499.1 28 L 499.1 23.8 L 507.3 23.8 L 507.3 63.2 A 12.15 12.15 0 0 0 507.402 64.836 Q 507.734 67.27 509.15 68.15 Q 511 69.3 513.2 69.3 L 511.3 76.3 A 17.722 17.722 0 0 1 507.035 75.828 Q 501.398 74.428 499.803 68.88 A 13.59 13.59 0 0 1 499.7 68.5 A 21.307 21.307 0 0 1 496.59 71.926 A 28.498 28.498 0 0 1 493.45 74.35 Q 489.5 77 483.4 77 Q 476.9 77 471.6 73.7 A 22.947 22.947 0 0 1 464.187 66.173 A 27.923 27.923 0 0 1 463.15 64.35 A 27.228 27.228 0 0 1 460.52 56.408 A 36.644 36.644 0 0 1 460 50.1 A 33.142 33.142 0 0 1 460.997 41.831 A 27.968 27.968 0 0 1 463.15 36.1 Q 466.3 29.9 471.85 26.25 A 22.297 22.297 0 0 1 483.045 22.644 A 27.388 27.388 0 0 1 484.6 22.6 A 22.584 22.584 0 0 1 489.394 23.09 A 18.703 18.703 0 0 1 492.75 24.15 A 26.002 26.002 0 0 1 497.037 26.444 A 22.103 22.103 0 0 1 499.1 28 Z M 231.3 96.7 L 233.5 89.2 Q 234.703 89.94 236.377 90.509 A 20.464 20.464 0 0 0 236.65 90.6 Q 238.5 91.2 240.4 91.2 Q 248.073 91.2 248.82 82.562 A 22.819 22.819 0 0 0 248.9 80.6 L 248.9 23.8 L 257.9 23.8 L 257.9 81.5 A 27.744 27.744 0 0 1 257.616 85.594 Q 257.291 87.765 256.596 89.558 A 14.026 14.026 0 0 1 255.7 91.45 A 14.572 14.572 0 0 1 252.462 95.4 A 13.375 13.375 0 0 1 249.8 97.15 A 17.63 17.63 0 0 1 243.469 98.911 A 21.513 21.513 0 0 1 241.5 99 Q 235.4 99 231.3 96.7 Z M 717.4 96.7 L 719.6 89.2 Q 720.803 89.94 722.477 90.509 A 20.464 20.464 0 0 0 722.75 90.6 Q 724.6 91.2 726.5 91.2 Q 734.173 91.2 734.92 82.562 A 22.819 22.819 0 0 0 735 80.6 L 735 23.8 L 744 23.8 L 744 81.5 A 27.744 27.744 0 0 1 743.716 85.594 Q 743.391 87.765 742.696 89.558 A 14.026 14.026 0 0 1 741.8 91.45 A 14.572 14.572 0 0 1 738.562 95.4 A 13.375 13.375 0 0 1 735.9 97.15 A 17.63 17.63 0 0 1 729.569 98.911 A 21.513 21.513 0 0 1 727.6 99 Q 721.5 99 717.4 96.7 Z M 282.5 73.55 A 24.559 24.559 0 0 0 287.098 75.64 Q 291.153 77 295.8 77 Q 303.2 77 309.05 73.6 Q 314.9 70.2 318.3 64.05 A 26.255 26.255 0 0 0 320.953 56.909 A 34.184 34.184 0 0 0 321.7 49.6 A 34.542 34.542 0 0 0 321.215 43.691 A 25.795 25.795 0 0 0 318.25 35.25 Q 314.8 29.2 308.95 25.9 A 24.848 24.848 0 0 0 304.309 23.873 A 27.738 27.738 0 0 0 295.8 22.6 A 31.325 31.325 0 0 0 294.22 22.639 A 26.169 26.169 0 0 0 282.6 25.9 Q 276.7 29.2 273.3 35.3 A 26.023 26.023 0 0 0 270.551 42.89 A 35.006 35.006 0 0 0 269.9 49.8 A 34.82 34.82 0 0 0 270.165 54.154 A 27.451 27.451 0 0 0 273.25 63.95 Q 276.6 70.1 282.5 73.55 Z M 684.7 73.55 A 24.559 24.559 0 0 0 689.298 75.64 Q 693.353 77 698 77 Q 705.4 77 711.25 73.6 Q 717.1 70.2 720.5 64.05 A 26.255 26.255 0 0 0 723.153 56.909 A 34.184 34.184 0 0 0 723.9 49.6 A 34.542 34.542 0 0 0 723.415 43.691 A 25.795 25.795 0 0 0 720.45 35.25 Q 717 29.2 711.15 25.9 A 24.848 24.848 0 0 0 706.509 23.873 A 27.738 27.738 0 0 0 698 22.6 A 31.325 31.325 0 0 0 696.42 22.639 A 26.169 26.169 0 0 0 684.8 25.9 Q 678.9 29.2 675.5 35.3 A 26.023 26.023 0 0 0 672.751 42.89 A 35.006 35.006 0 0 0 672.1 49.8 A 34.82 34.82 0 0 0 672.365 54.154 A 27.451 27.451 0 0 0 675.45 63.95 Q 678.8 70.1 684.7 73.55 Z M 295.8 69 Q 303.7 69 308.1 63.65 A 18.802 18.802 0 0 0 311.919 55.56 A 27.105 27.105 0 0 0 312.5 49.8 Q 312.5 44.6 310.3 40.25 A 19.198 19.198 0 0 0 306.128 34.681 A 18.17 18.17 0 0 0 304.35 33.25 Q 300.6 30.6 295.8 30.6 A 19.249 19.249 0 0 0 290.574 31.272 A 14.037 14.037 0 0 0 283.5 35.8 A 17.878 17.878 0 0 0 279.826 43.174 Q 279.1 46.106 279.1 49.6 Q 279.1 54.8 281.3 59.25 A 19.437 19.437 0 0 0 284.83 64.29 A 17.627 17.627 0 0 0 287.25 66.35 Q 291 69 295.8 69 Z M 698 69 Q 705.9 69 710.3 63.65 A 18.802 18.802 0 0 0 714.119 55.56 A 27.105 27.105 0 0 0 714.7 49.8 Q 714.7 44.6 712.5 40.25 A 19.198 19.198 0 0 0 708.328 34.681 A 18.17 18.17 0 0 0 706.55 33.25 Q 702.8 30.6 698 30.6 A 19.249 19.249 0 0 0 692.774 31.272 A 14.037 14.037 0 0 0 685.7 35.8 A 17.878 17.878 0 0 0 682.026 43.174 Q 681.3 46.106 681.3 49.6 Q 681.3 54.8 683.5 59.25 A 19.437 19.437 0 0 0 687.03 64.29 A 17.627 17.627 0 0 0 689.45 66.35 Q 693.2 69 698 69 Z M 172.6 62.5 L 172.6 34.6 Q 169.9 32.7 166.65 31.55 Q 163.4 30.4 159.8 30.4 A 15.924 15.924 0 0 0 154.829 31.154 A 14.024 14.024 0 0 0 151.35 32.85 A 16.301 16.301 0 0 0 146.331 38.274 A 19.962 19.962 0 0 0 145.6 39.65 A 20.663 20.663 0 0 0 143.847 45.327 A 27.678 27.678 0 0 0 143.5 49.8 Q 143.5 55.4 145.6 59.75 A 17.602 17.602 0 0 0 148.706 64.296 A 15.697 15.697 0 0 0 151.4 66.55 Q 155.1 69 159.7 69 Q 163.5 69 166.9 67.15 Q 170.3 65.3 172.6 62.5 Z M 498.3 62.5 L 498.3 34.6 Q 495.6 32.7 492.35 31.55 Q 489.1 30.4 485.5 30.4 A 15.924 15.924 0 0 0 480.529 31.154 A 14.024 14.024 0 0 0 477.05 32.85 A 16.301 16.301 0 0 0 472.031 38.274 A 19.962 19.962 0 0 0 471.3 39.65 A 20.663 20.663 0 0 0 469.547 45.327 A 27.678 27.678 0 0 0 469.2 49.8 Q 469.2 55.4 471.3 59.75 A 17.602 17.602 0 0 0 474.406 64.296 A 15.697 15.697 0 0 0 477.1 66.55 Q 480.8 69 485.4 69 Q 489.2 69 492.6 67.15 Q 496 65.3 498.3 62.5 Z M 625.7 37.2 L 625.7 65 A 17.99 17.99 0 0 0 629.33 67.185 A 21.802 21.802 0 0 0 631.1 67.9 A 19.462 19.462 0 0 0 637.264 68.996 A 22.039 22.039 0 0 0 637.7 69 Q 642.6 69 646.35 66.6 Q 650.1 64.2 652.25 59.8 Q 654.4 55.4 654.4 49.6 Q 654.4 43.6 652.25 39.3 Q 650.1 35 646.55 32.7 Q 643 30.4 638.7 30.4 A 14.741 14.741 0 0 0 633.073 31.463 A 14.054 14.054 0 0 0 630.95 32.55 Q 627.5 34.7 625.7 37.2 Z M 248.837 13.088 A 5.973 5.973 0 0 0 253.2 14.9 A 8.175 8.175 0 0 0 254.696 14.769 A 5.647 5.647 0 0 0 257.8 13.15 Q 259.5 11.4 259.5 8.6 A 7.26 7.26 0 0 0 259.5 8.519 A 6.06 6.06 0 0 0 257.65 4.15 A 7.395 7.395 0 0 0 257.592 4.093 A 6.059 6.059 0 0 0 253.2 2.3 A 8.264 8.264 0 0 0 251.544 2.458 A 5.661 5.661 0 0 0 248.6 4 A 5.588 5.588 0 0 0 247.129 6.632 A 7.987 7.987 0 0 0 246.9 8.6 A 5.992 5.992 0 0 0 247.392 11.019 A 6.643 6.643 0 0 0 248.75 13 A 7.466 7.466 0 0 0 248.837 13.088 Z M 734.937 13.088 A 5.973 5.973 0 0 0 739.3 14.9 A 8.175 8.175 0 0 0 740.796 14.769 A 5.647 5.647 0 0 0 743.9 13.15 Q 745.6 11.4 745.6 8.6 A 7.26 7.26 0 0 0 745.6 8.519 A 6.06 6.06 0 0 0 743.75 4.15 A 7.395 7.395 0 0 0 743.692 4.093 A 6.059 6.059 0 0 0 739.3 2.3 A 8.264 8.264 0 0 0 737.644 2.458 A 5.661 5.661 0 0 0 734.7 4 A 5.588 5.588 0 0 0 733.229 6.632 A 7.987 7.987 0 0 0 733 8.6 A 5.992 5.992 0 0 0 733.492 11.019 A 6.643 6.643 0 0 0 734.85 13 A 7.466 7.466 0 0 0 734.937 13.088 Z" vector-effect="non-scaling-stroke"/></g></svg>